<?xml version="1.0" encoding="utf-8"?>
<!-- Generator: Adobe Illustrator 26.0.0, SVG Export Plug-In . SVG Version: 6.00 Build 0)  -->
<svg version="1.1" xmlns="http://www.w3.org/2000/svg" xmlns:xlink="http://www.w3.org/1999/xlink" x="0px" y="0px"
	 viewBox="0 0 100 50" style="enable-background:new 0 0 100 50;" xml:space="preserve">
<style type="text/css">
	.st0{fill:#1D6DB6;}
	.st1{fill:#D4E165;}
	.st2{fill:#FFFFFF;stroke:#000000;stroke-miterlimit:10;}
	.st3{display:none;fill:none;stroke:#000000;stroke-width:0.25;stroke-miterlimit:10;}
	.st4{fill:none;stroke:#000000;stroke-width:0.25;stroke-miterlimit:10;}
	.st5{opacity:0.2;}
	.st6{fill:none;stroke:#FFFFFF;stroke-width:0.25;stroke-miterlimit:10;}
</style>
<g id="Layer_1">
	<path class="st0" d="M76.87,25.52c0,0.06,0,0.12,0,0.17c-0.09,2.12-1.84,3.81-3.98,3.81c-2.2,0-3.98-1.78-3.98-3.98
		s1.78-3.98,3.98-3.98S76.87,23.32,76.87,25.52z"/>
	<path class="st1" d="M51.47,47.02c1.33,1.33,6.88-2.06,12.4-7.57c3.31-3.31,5.85-6.63,7.07-9.05c-1.33-0.46-2.38-1.51-2.84-2.84
		c-2.42,1.22-5.74,3.75-9.05,7.07C53.53,40.14,50.14,45.69,51.47,47.02z"/>
	<path class="st2" d="M8.47,16.36"/>
	<path class="st3" d="M15.94,13.03c0.04-0.07,0.14-0.21,0.32-0.5c0.98-1.56,1.03-1.73,1.29-2.05c0.5-0.61,0.73-0.44,2.04-1.29
		c1.74-1.13,1.71-1.7,2.32-1.69c1.37,0.02,1.53,2.96,3.36,3.37c1.09,0.24,1.46-0.7,3.23-0.9c1.8-0.21,4.03,0.41,4.26,1.42
		c0.27,1.22-2.62,1.9-2.81,4.03c-0.12,1.38,1.04,1.71,1.68,3.9c0.59,2.03,0.45,4.64-0.42,4.97c-1.18,0.44-2.18-3.86-5.81-5.1
		c-3.75-1.28-6.47,2.02-8.65,0.42C15.06,18.37,14.87,15.03,15.94,13.03z"/>
	<path class="st4" d="M37.95,15.04"/>
	<path class="st4" d="M50.54,4.65"/>
	<path class="st4" d="M47.17,4.29"/>
	<path class="st2" d="M27.77-4.06"/>
	<path class="st2" d="M51.92,35.71"/>
	<path class="st1" d="M17.39,1.78"/>
	<path class="st0" d="M52.53,25c0,13-10.54,23.54-23.54,23.54S5.45,38,5.45,25c0-5.75,2.18-10.08,2.98-11.48
		C12.43,6.51,20.38,1.36,28.99,1.46C40.66,1.59,52.53,11.36,52.53,25z"/>
	<g class="st5">
		<path class="st6" d="M51.77,30.92c-3.24,3.16-8.91,7.88-17.16,11.19c-6.62,2.66-12.56,3.46-16.66,3.69"/>
		<path class="st6" d="M52.18,21.01c-3.69,3.67-10.72,9.69-21.29,13.51c-8.85,3.21-16.65,3.59-21.55,3.45"/>
		<path class="st6" d="M48.56,12.17C45.2,15.8,38.34,22.22,27.62,26.21c-9.05,3.37-17.02,3.58-21.74,3.34"/>
		<path class="st6" d="M43.11,6.45c-3.18,3.26-9.2,8.59-18.31,12.13c-7.87,3.05-14.84,3.53-19.17,3.49"/>
		<path class="st6" d="M35.48,2.51c-3.21,2.53-7.87,5.64-13.98,8.12c-5.14,2.08-9.81,3.11-13.46,3.63"/>
	</g>
	<g class="st5">
		<path class="st6" d="M20.21,3.19c-0.41,5.14-0.46,14.1,3.12,24.41c3.36,9.66,8.47,16.35,11.82,20.12"/>
		<path class="st6" d="M15.97,5.44c-6.11,7.41-7.79,17.53-4.36,26.4c5.09,13.15,18.52,16.13,19.45,16.32"/>
		<path class="st6" d="M22.17,2.48c3.37,2.6,9.07,7.75,13.09,16.1c5.87,12.18,4.47,23.51,3.73,27.73"/>
		<path class="st6" d="M29.52,1.47c1.42,0.43,12.87,4.09,17.45,15.94c3.48,9,1.68,19.34-4.64,26.97"/>
	</g>
	<path class="st1" d="M45.84,17.05C44,11.23,40.69,3.78,39.14,4.18c-1.74,0.45-0.88,10.1-0.52,13.6c0.02,0.24,0.05,0.51,0.11,1.04
		c1.2,10.95,1.89,13.29,1.03,13.73c-1.23,0.62-4.77-3.04-9.34-5.63c-0.49-0.28-1.62-0.9-2.59-0.48c-0.73,0.31-1.05,1.07-1.19,1.44
		c-1.52,3.77-2.19,9.71-3.28,9.95c-1.2,0.27-3.03-6.33-7.49-14.05c-0.01-0.02-0.06-0.1-0.13-0.22c-1.85-3.19-5.1-8.78-6.91-10.62
		c-0.48,0.81-0.92,1.64-1.3,2.49c0.31,2.7,1.25,6.8,2.59,10.8c3.13,9.28,8.53,18.31,12.46,21.4c1.18,0.33,2.39,0.55,3.61,0.7
		c1.91-1.47,3.73-6.56,4.14-10.2c0.09-0.84,0.22-2.55,1.09-2.84c0.87-0.29,1.97,1.06,2.78,1.89c3.12,3.19,8.16,5.1,11.15,4.66
		c0.94-0.91,1.79-1.88,2.56-2.92c0.09-0.48,0.17-1.05,0.26-1.76c0.82-7.16-0.31-13.62-2.1-19.45
		C45.95,17.39,45.87,17.16,45.84,17.05z"/>
	<path class="st1" d="M51.66,4.37c1.33-1.33,6.88,2.06,12.4,7.57c3.31,3.31,5.85,6.63,7.07,9.05c-1.33,0.46-2.38,1.51-2.84,2.84
		c-2.42-1.22-5.74-3.75-9.05-7.07C53.72,11.25,50.33,5.7,51.66,4.37z"/>
	<path class="st1" d="M94.26,46.85c-1.33,1.33-6.88-2.06-12.4-7.57c-3.31-3.31-5.85-6.63-7.07-9.05c1.33-0.46,2.38-1.51,2.84-2.84
		c2.42,1.22,5.74,3.75,9.05,7.07C92.21,39.97,95.6,45.52,94.26,46.85z"/>
	<path class="st1" d="M94.26,4.19c-1.33-1.33-6.88,2.06-12.4,7.57c-3.31,3.31-5.85,6.63-7.07,9.05c1.33,0.46,2.38,1.51,2.84,2.84
		c2.42-1.22,5.74-3.75,9.05-7.07C92.21,11.08,95.6,5.53,94.26,4.19z"/>
</g>
<g id="Layer_2">
</g>
</svg>
